<?xml version="1.0" encoding="UTF-8"?>
<!-- Generated by Pixelmator Pro 3.7.1 -->
<svg width="156" height="156" viewBox="0 0 156 156" xmlns="http://www.w3.org/2000/svg">
    <g id="Group-copy">
        <path id="Rectangle" fill="#ff8a72" fill-rule="evenodd" stroke="none" d="M 25.649605 54.425941 L 120.625473 54.425941 C 120.625473 54.425941 167.973816 12.998199 149.683243 12.991379 C 133.311218 12.98526 25.649605 12.991379 25.649605 12.991379 C 25.649605 12.991379 2.540262 28.919899 1.9729 33.588905 C 1.400533 38.299095 25.649605 54.425941 25.649605 54.425941 Z"/>
        <path id="Rectangle-copy" fill="#16a5b8" fill-rule="evenodd" stroke="none" d="M 130.309464 103.833351 L 35.333599 103.842178 C 35.333599 103.842178 -12.010888 145.274323 6.279689 145.279449 C 22.651709 145.284042 130.313324 145.267914 130.313324 145.267914 C 130.313324 145.267914 153.421173 129.33725 153.988113 124.668182 C 154.560043 119.957939 130.309464 103.833351 130.309464 103.833351 Z"/>
        <path id="path1" fill="#ffffff" fill-rule="evenodd" stroke="none" d="M 43 95 C 43 95 73.205879 96.058571 81 95 C 89.635635 93.827133 115 63 115 63 C 115 63 83.019341 61.966919 75 63 C 65.784363 64.187195 43 95 43 95 Z"/>
    </g>
</svg>
